<?xml version="1.0" encoding="UTF-8"?> <svg xmlns="http://www.w3.org/2000/svg" xmlns:xlink="http://www.w3.org/1999/xlink" viewBox="0 0 418.3 317.89"><defs><style>.cls-1{fill:#66b0e0;opacity:0.4;}.cls-2{fill:#e4eef4;}.cls-3{fill:url(#linear-gradient);}.cls-4{fill:#0096d6;}.cls-5{fill:#73c1a8;}.cls-6{fill:#94e69a;}.cls-7{fill:#7522d6;}.cls-22,.cls-24,.cls-25,.cls-34,.cls-35,.cls-8,.cls-9{fill:none;}.cls-24,.cls-25,.cls-8{stroke:#fff;}.cls-22,.cls-24,.cls-25,.cls-35,.cls-8,.cls-9{stroke-linecap:round;stroke-linejoin:round;}.cls-8{stroke-width:2.38px;}.cls-9{stroke:#7c24e3;stroke-width:0.78px;}.cls-10{fill:#ff9d80;}.cls-11{fill:#fa835f;}.cls-12{fill:#3a186b;}.cls-13{fill:#00638e;}.cls-14{fill:#005073;}.cls-15{fill:#70b052;}.cls-16{fill:#85d361;}.cls-17{fill:#97cbff;}.cls-18{fill:#f5f9ff;}.cls-19{fill:#54a3d2;}.cls-20{fill:#cfe4fa;}.cls-21{fill:#0283ad;}.cls-22{stroke:#082187;stroke-width:0.41px;}.cls-23{fill:#02789e;}.cls-24{stroke-width:0.35px;}.cls-25{stroke-width:0.35px;}.cls-26{fill:#a8c4e0;}.cls-27{fill:#88d664;}.cls-28{fill:#56873f;}.cls-29{fill:#237daa;}.cls-30{fill:#007bb0;}.cls-31{fill:#b7e4f7;}.cls-32{fill:#82bad1;}.cls-33{fill:#92d1eb;}.cls-34,.cls-35{stroke:#66b0e0;opacity:0.28;}.cls-34{stroke-miterlimit:10;}.cls-36{fill:url(#linear-gradient-2);}.cls-37{fill:#fff;}.cls-38{fill:#afb0e0;}</style><linearGradient id="linear-gradient" x1="223.86" y1="28.98" x2="326.37" y2="201.31" gradientTransform="matrix(1.06, -0.18, 0, 1, -29.89, 92.26)" gradientUnits="userSpaceOnUse"><stop offset="0" stop-color="#00638e"></stop><stop offset="1" stop-color="#62addd"></stop></linearGradient><linearGradient id="linear-gradient-2" x1="286.77" y1="139.58" x2="306.08" y2="106.13" gradientTransform="matrix(1.03, -0.14, 0, 1, -13.77, 44.42)" gradientUnits="userSpaceOnUse"><stop offset="0" stop-color="#6fbdb1"></stop><stop offset="1" stop-color="#8ee068"></stop></linearGradient></defs><title>Artboard 5</title><g id="image"><path class="cls-1" d="M386.48,207.25,210,141.69V26.35c0-1.82,1.18-2.87,2.63-2.33l171.22,63.6a4.78,4.78,0,0,1,2.63,4.29Z"></path><ellipse class="cls-1" cx="97.96" cy="281.09" rx="26.02" ry="10.97"></ellipse><polygon class="cls-1" points="366.85 265.14 407.44 232.65 199.93 161.93 196.31 159.69 366.85 265.14"></polygon><path class="cls-2" d="M376.3,257.55l-9.45,7.59-203.1-86.55-8.54-133.9s8.86-6.87,9.37-7.39a2.11,2.11,0,0,1,2.34-.43l206.21,76.6a5.76,5.76,0,0,1,3.17,5.16Z"></path><path class="cls-3" d="M366.85,265.14l-212.54-79V47.26c0-2.19,1.42-3.45,3.16-2.8l206.21,76.6a5.76,5.76,0,0,1,3.17,5.16Z"></path><path class="cls-4" d="M366.85,150,154.31,71l-.08-23.69c0-2.55,1.48-3.59,3.38-2.88L363.4,121c1.9.7,3.45,3.36,3.45,5.91Z"></path><path class="cls-5" d="M175,65.82a2,2,0,0,1-2.83,2,4.68,4.68,0,0,1-2.82-4.11,2,2,0,0,1,2.82-2A4.68,4.68,0,0,1,175,65.82Z"></path><path class="cls-6" d="M183.58,69a2,2,0,0,1-2.83,2,4.68,4.68,0,0,1-2.82-4.11,2,2,0,0,1,2.82-2A4.69,4.69,0,0,1,183.58,69Z"></path><ellipse class="cls-7" cx="189.32" cy="71.14" rx="2.45" ry="3.53" transform="translate(-7.68 116.92) rotate(-33.68)"></ellipse><path class="cls-1" d="M306,191.83,184.07,146.54c-6.78-2.52-12.32-11.56-12.32-20.08h0c0-8.52,5.54-13.44,12.32-10.92L306,160.83c6.78,2.52,12.33,11.55,12.33,20.08h0C318.32,189.43,312.77,194.35,306,191.83Z"></path><path class="cls-8" d="M345.17,190.19c0,5.77-4.32,8.84-9.64,6.86s-9.64-8.25-9.64-14,4.32-8.83,9.64-6.85S345.17,184.43,345.17,190.19Z"></path><line class="cls-8" x1="347.41" y1="203.26" x2="344.15" y2="199.5"></line><line class="cls-9" x1="189.59" y1="125.64" x2="189.59" y2="141.83"></line><polygon class="cls-1" points="249.41 213.72 222.56 203.38 225.59 189.04 252.44 199.38 249.41 213.72"></polygon><polygon class="cls-1" points="167.12 125.4 140.27 115.06 143.3 100.72 170.15 111.06 167.12 125.4"></polygon><path class="cls-10" d="M203.85,209.43l-17.93,7,7.13,6.79s13.93-10.42,14-11.56S203.85,209.43,203.85,209.43Z"></path><path class="cls-10" d="M203.85,209.43s2.4-5.77,4.59-6.83a25,25,0,0,1,6.48-1.39.26.26,0,0,1,.19.46l-2,1.48,2.72-.23.25,2a1.58,1.58,0,0,1-1.29,1.74l-4.26.83s.88,1.6-3.48,4.24C206,212.3,203.85,209.43,203.85,209.43Z"></path><ellipse class="cls-1" cx="185.5" cy="276.44" rx="27.66" ry="13.74" transform="matrix(1, -0.1, 0.1, 1, -26.57, 19.81)"></ellipse><path class="cls-11" d="M207.54,262.11s-.09,10.88-27.32,18.94l-1.65-2.54,23.05-22.95Z"></path><path class="cls-12" d="M180.53,282l-4.86,2.23c-2.9,2.61-4.12,4.26-5.9,3.87l-.51-.11c-1.78-.39-2.08-2-.65-3.55l5.56-8.26a5.15,5.15,0,0,1,5.65-1.2s1.07.48,1.48,3.83C181.53,280.72,181.67,280.75,180.53,282Z"></path><path class="cls-11" d="M214,263.5s6,11.17-28,23.49l-2.42-4.79L207,263.79Z"></path><path class="cls-13" d="M169.67,248.71l28.93,1.65a16.28,16.28,0,0,1,9,3.34c5.48,4.22,12.43,11.87-.21,17l-25.5,8.61c-5.47,1.91-10.48,1.83-14.2-3.06-3.27-4.3-3.37-14.21-1.17-18.6Z"></path><path class="cls-14" d="M207.59,253.77c2.36,1.82,5,4.29,6.22,6.91l-15.4,5.2c-4.17.77-7.94-.07-10.9-3.95-2.1-2.77-2.89-7.84-2.6-12.28l13.67.78A16.31,16.31,0,0,1,207.59,253.77Z"></path><path class="cls-13" d="M186.11,287.39l-4.79,2.2c-2.86,2.57-4.06,4.2-5.82,3.81l-.49-.11c-1.76-.39-2-2-.65-3.49l2.3-3A19.1,19.1,0,0,0,177.9,285l1.94-3.31a5.09,5.09,0,0,1,5.57-1.18s1.06.48,1.46,3.78C187.1,286.13,187.23,286.16,186.11,287.39Z"></path><path class="cls-15" d="M169.11,246.18s.08-7.15-.17-11.57c-.35-6.45-.65-18.11-.65-18.16,0-3.4-1.43-5.46,4.28-8.43l6.21-1.53,8,4.06s11.61,8.57,10.86,16.46c-.35,3.69-4.13,9.34-5.54,14.41l1.5,9.92c-.67,7.63-21.83,3.74-25.08-2.52A2,2,0,0,1,169.11,246.18Z"></path><path class="cls-16" d="M191.35,224.52c.35,4.43-2.49,4-2.91,7.59s1.21,5.64-.48,8.19-2.78,5.53-1.43,8.54c1,2.12-.19,4.71-.57,6.76,4.26,0,7.68-1.21,7.95-4.21l-1.5-9.92c1.41-5.07,5.19-10.72,5.54-14.41.26-2.68-.91-5.43-2.57-7.91l-.72-.47A5.66,5.66,0,0,0,191.35,224.52Z"></path><path class="cls-10" d="M205.84,233.27c3.6-8.14,8.37-13.63,9.55-19.52l3.33,1.9s-4.79,25.44-9.22,24.95C202.88,239.85,205.84,233.27,205.84,233.27Z"></path><path class="cls-12" d="M172.85,192.83s-8.2,9.81-8.13,14.4a90.33,90.33,0,0,0,1.51,12.12l1.29-7.64s-3.39-6.44,4.07-14S172.85,192.83,172.85,192.83Z"></path><polygon class="cls-10" points="177.35 209.36 182.93 198.13 189.99 199.09 185.97 210.97 177.35 209.36"></polygon><path class="cls-10" d="M190.35,221.48s14,19,18.17,19.35,3.16-6.72,3.16-6.72l-16-16Z"></path><path class="cls-11" d="M192.45,219.07l-2.1,2.41s14,19,18.17,19.35a3,3,0,0,0,2.88-1.46C207.08,238,195.73,223.41,192.45,219.07Z"></path><path class="cls-10" d="M179.86,184.23s-3.78,19.89,9.74,21.25c0,0,5.32,2.19,5.58-11.89S185.74,181.05,179.86,184.23Z"></path><path class="cls-11" d="M191.11,205.49a17.18,17.18,0,0,1-5-6.6l-5.9,3.23-2.57,6.68,8.77,1.4,1.36-4.76S190.19,206,191.11,205.49Z"></path><path class="cls-1" d="M205.33,226.79l1.67,1.92a9.38,9.38,0,0,1-6.52,5.9l-1.74-1.87Z"></path><path class="cls-16" d="M188.4,212.12a20,20,0,0,1,9.72,6.87,98.68,98.68,0,0,0,7.29,8c.2,3.42-2,5.19-7.48,7.36l-17.49-19.92Z"></path><path class="cls-1" d="M189.76,212.7,187,210.24l-12.8-2.8s1.18,5.76,6.91,4.9A36.8,36.8,0,0,1,189.76,212.7Z"></path><path class="cls-12" d="M184.85,199.77a25.17,25.17,0,0,1-5.75,13c-2.3,2.57-1.75,10.26-8.11,9.29s-6.59-3.4-2.31-18a154.64,154.64,0,0,1,6.25-16Z"></path><path class="cls-17" d="M214.59,214.36,208,211.51a.93.93,0,0,1-.45-1.13l3.71-12.11a.73.73,0,0,1,1-.54l6.53,2.74a.94.94,0,0,1,.45,1.14l-3.69,12c-.09.3-.23.37-.51.5Z"></path><path class="cls-17" d="M213.24,203.2s-5.82,7.64-5.68,7.18l3.65-12.48.53-.17a.64.64,0,0,1,.49,0l6.53,2.74a.79.79,0,0,1,.42.44Z"></path><path class="cls-13" d="M214,214.42l-6.51-2.74a.94.94,0,0,1-.44-1.14l3.71-12.1a.72.72,0,0,1,1-.54l6.5,2.74a.92.92,0,0,1,.43,1.13l-3.71,12.11A.71.71,0,0,1,214,214.42Z"></path><path class="cls-18" d="M214.56,212.43l-6.4-2.69,3.23-10.67,6.37,2.67-3.33,10.43C214.4,212.26,214.65,212.47,214.56,212.43Z"></path><path class="cls-10" d="M215.2,208.82a16.77,16.77,0,0,1,.37,2.57,23.84,23.84,0,0,0,1.3,3.84s-.93,2-2.46.9-.73-4.44-.73-4.44l.17-3.83S214.22,207.17,215.2,208.82Z"></path><path class="cls-10" d="M220.61,209c-.19-.65-.39-1.38-.39-1.38a4,4,0,0,0-2.06-2.54l-1.06,3.49c-1,1.45-1.71,2.71-1.52,3.6l-.62.69a.38.38,0,0,0-.07.36l1.17,3.76a.38.38,0,0,0,.67.11c.19-.29.43-.71.71-1.21l.8,1.09s1.76-4.24,2.27-6.08a.14.14,0,0,1,0-.06A3.17,3.17,0,0,0,220.61,209Z"></path><path class="cls-15" d="M194.8,235.9l2.91-1.37a55.21,55.21,0,0,0-5.89-12.24c-3.53-5.17-8.28-9.09-12.52-9.7l1.58,14.77,3.89-3.18S193.64,237.56,194.8,235.9Z"></path><path class="cls-11" d="M190.86,205.41a5.6,5.6,0,0,1-.75-5.17c1.13-2.72,2.59-8.22,1.26-10s-2.84,2.77-2.84,2.77l-.56,4.69-2.54,1.46.15,5.66Z"></path><path class="cls-12" d="M181.14,203.09l1,0c.84.24,2.36-1.68,2.7-2.5.58-1.43,2.44-2.11,3-4.3.23-.86,2-.4,2.46-2,.81-2.89,4.48-5.56,4.48-5.56s1.75-.53,1.4-2c-.51-2.18-1.82-1.81-3.17-3.07-3-2.84-14.12-4.46-17.45,2.64C171.76,194.39,181.14,203.09,181.14,203.09Z"></path><path class="cls-14" d="M187.31,181.39s-.46,6.56,4.09,6.77,3.73-3.06,3.73-3.06-.8-.51-1.52-1S192.29,182.19,187.31,181.39Z"></path><path class="cls-14" d="M196.24,186.87a2.66,2.66,0,0,0-1.11-1.77c-.76.58-4.52,3.57-5.42,6.78-.54,1.94-2.75,1.36-3,2.44-.52,1.9-6.15,8.66-9.91,16.81-1.43,3.09-2.09,9.49-6.78,10.5.4.11.8.19,1.21.26,6.36,1,5.82-6.72,8.11-9.3a24.91,24.91,0,0,0,5.6-12c.63-1.37,2.42-2.06,3-4.2.23-.87,2-.4,2.46-2,.81-2.88,4.48-5.56,4.48-5.56S196.59,188.37,196.24,186.87Z"></path><path class="cls-11" d="M189.75,197.57a2,2,0,1,1-1.83-2.64A2.29,2.29,0,0,1,189.75,197.57Z"></path><polygon class="cls-11" points="207.62 229.52 209.22 230.94 208.5 227.95 207.62 229.52"></polygon><path class="cls-12" d="M174.26,289.75l2.3-3a17.42,17.42,0,0,0,1.24-1.84l1.95-3.31a5.08,5.08,0,0,1,5-1.36c-.08.24.15-.23,0,0,.36.83-1.78,4-4.53,7.23l-4.17,5.77-.12.16a2.09,2.09,0,0,1-.55,0l-.5-.11C173.15,292.85,172.86,291.28,174.26,289.75Z"></path><path class="cls-17" d="M132.93,134.4l-9.74-2.9a1.32,1.32,0,0,1-.83-1.52l3.18-17.67a1,1,0,0,1,1.27-.93l9.65,2.76a1.33,1.33,0,0,1,.83,1.52l-3.16,17.59c-.08.44-.27.56-.65.79Z"></path><path class="cls-17" d="M129.14,118.92s-6.9,11.74-6.78,11.06l3-18.19.72-.33a.94.94,0,0,1,.7-.08l9.65,2.76a1.12,1.12,0,0,1,.66.55Z"></path><path class="cls-13" d="M132.09,134.58l-9.63-2.76a1.31,1.31,0,0,1-.8-1.52l3.18-17.68a1,1,0,0,1,1.25-.92l9.62,2.77a1.31,1.31,0,0,1,.8,1.52l-3.18,17.68A1,1,0,0,1,132.09,134.58Z"></path><path class="cls-18" d="M132.57,131.69,123.09,129l2.76-15.57,9.42,2.69-2.94,15.25C132.31,131.48,132.7,131.72,132.57,131.69Z"></path><path class="cls-10" d="M132.82,124.14c.26.69-.19,2.57-.12,3.68a33.18,33.18,0,0,0,.88,5.68s-1.8,2.55-3.67.65.08-6.37.08-6.37l1.17-5.3S131.84,121.59,132.82,124.14Z"></path><path class="cls-10" d="M140.33,125.65c-.09-1-.2-2-.2-2a6.26,6.26,0,0,0-2.46-4.21,7,7,0,0,1-.91-.8l-.51,2.86s-.36,1.82-.65,3.25c-1.7,1.78-3.11,2.83-3.07,4.11l-1,.81a.54.54,0,0,0-.19.49l.71,5.54a.53.53,0,0,0,.91.32c.33-.36.78-.89,1.29-1.51l.85,1.72s3.49-5.49,4.66-7.94l0-.09A4.29,4.29,0,0,0,140.33,125.65Z"></path><polygon class="cls-10" points="129.88 132.82 128.25 139.12 135.04 141.17 136.05 133.9 129.88 132.82"></polygon><path class="cls-19" d="M131.41,163c2.13-9.58,2.91-10.19,5.28-23.69L128,136.93c-2,10.54-4.52,13.85-7.7,23a5.79,5.79,0,0,0,2.55,6.92h0A5.79,5.79,0,0,0,131.41,163Z"></path><polygon class="cls-20" points="128.46 137.06 128.96 134.96 136.35 137.22 135.83 139.03 128.46 137.06"></polygon><polygon class="cls-21" points="124.49 149.28 127.45 152.86 126.07 145.25 124.49 149.28"></polygon><path class="cls-10" d="M76.79,190.56l.78,1.87a6.25,6.25,0,0,0,3.59,3.31,7.85,7.85,0,0,1,1.1.5l-.34-2.88s-.19-1.85-.34-3.3c1.11-2.21,2.15-3.62,1.73-4.83l.75-1.08a.53.53,0,0,0,0-.52l-2.3-5.09a.54.54,0,0,0-1,0c-.21.44-.48,1.08-.79,1.83l-1.32-1.4s-1.72,6.27-2.12,9a.51.51,0,0,1,0,.09A4.38,4.38,0,0,0,76.79,190.56Z"></path><path class="cls-22" d="M112.53,110.25l2.25.46a1.59,1.59,0,0,0,1.89-1.69v-.27a2.49,2.49,0,0,0-1.83-2.45l-2.25-.46a1.6,1.6,0,0,0-1.9,1.68v.28A2.49,2.49,0,0,0,112.53,110.25Z"></path><path class="cls-23" d="M80.39,130.07l-6,21.68c-1.1,3,.18,7.59.55,10.74L77.4,182.8l11.95-3.63S84,137.05,84,136.63,80.39,130.07,80.39,130.07Z"></path><path class="cls-12" d="M84.29,271.3a1.23,1.23,0,0,0-1.45.7c-.88,2-2.69,6.76-1.53,8.56.91,1.39,1.74,1.38,2.8,1.82a4,4,0,0,0,2.21.24l10.56-6.73c1.38-.29-.73-4-2.77-4.1-2.74-.07-3.76,1.19-3.76,1.19Z"></path><path class="cls-24" d="M91,272.8a2.85,2.85,0,0,1,2.55,1.69"></path><path class="cls-10" d="M91.42,267.71,91,275.06s-3.07.27-3.73-1.5a3.52,3.52,0,0,0-2.36-2.08l-1-.26-.9-6.9Z"></path><path class="cls-13" d="M84.32,179.22l-3.39.71L80.59,191a13.62,13.62,0,0,0,1.14,6.58h0c.55,6.21,1.79,17.57.73,28.21-.73,7.31-1.34,13.2-1.32,15.19.06,4.51-.2,29.9-.2,29.9s4.31,3.4,10.61.56l6.25-45-.29-41.12Z"></path><path class="cls-12" d="M103.64,279.32a1.12,1.12,0,0,0-1.46.58c-.69,1.94-2.05,6.44-.58,8.28,1.15,1.44,1.8,2.42,4.84,2.47l16.23-3.13c1.44-.18,2.37-5.5-1.89-5.83-3-.24-11-1.53-11-1.53Z"></path><path class="cls-10" d="M111.07,273.93l.69,10.12s-3.68-.51-4.61-2.29a4.74,4.74,0,0,0-2.79-2.21l-1-.33-1.62-7.1Z"></path><path class="cls-25" d="M112.2,280.61s3.11,1.25,3.35,3.4"></path><path class="cls-25" d="M114.87,281.07s2.78.6,3,2.65"></path><path class="cls-14" d="M98.45,227.84l.1-18.55-9.86-10.5-.64-.92c-.29,5,2.09,7.82,4.14,9.87a82.15,82.15,0,0,1,2.09,8.83c-.56,2.64-1.07,5.42-.08,7s.76,4.36.36,7.11-1,5.33-1.07,6.21c0,1.75-5.31,8.58-4.28,12.36s-.6,13-1.51,15.57,1.13,7.59,1.13,7.59a35.7,35.7,0,0,0,4.36-1.48L95.7,246.7,97.19,236Z"></path><path class="cls-13" d="M95.14,182.62l4.64,53.13s.7,18.06.87,41.9c2.81,2,8.73,2.66,11.69.83,0,0,3.33-41.13,3.21-42.45L115.12,182Z"></path><path class="cls-14" d="M115.55,236,115.12,182l-4,.13.43,53.85c.12,1.32-3.21,42.45-3.21,42.45a7.6,7.6,0,0,1-3,1c2.54.4,5.27.18,7-.89C112.34,278.48,115.67,237.35,115.55,236Z"></path><polygon class="cls-10" points="94.96 126.7 100.29 112.53 108.88 112.82 105.52 127.58 94.96 126.7"></polygon><path class="cls-10" d="M96.7,100.89s-3.91,19.67,12.5,19.65c0,0,6.65,2,5.25-15S103.37,96.35,96.7,100.89Z"></path><path class="cls-11" d="M111,120.37a20.59,20.59,0,0,1-6.81-7.31l-7.45,3.75-1.37,8.73,10.56,1.07,1-5.89S110,121,111,120.37Z"></path><path class="cls-14" d="M96.49,117.67l2.87.66a3.62,3.62,0,0,0,3.92-1.67,17.23,17.23,0,0,0,1.43-2.69,19.92,19.92,0,0,0,1.25-4.29c.18-1.07,2.38-.73,2.71-2.66.62-3.56,4.71-7.22,4.71-7.22s2-.85,1.43-2.6c-.88-2.55-2.3-2.08-4.18-3.3-2.83-1.83-14.68-.86-17,2.94-.59,1-1.38,1.85-2,3C87.83,107,96.49,117.67,96.49,117.67Z"></path><path class="cls-13" d="M105.55,108.07h0a9.75,9.75,0,0,1-6.07-4.28,36.58,36.58,0,0,1-4-8.43A5.1,5.1,0,0,0,93.62,97c-.58,1-1.37,1.85-2,3-3.82,7.17,4.84,17.85,4.84,17.85l2.87.66a3.64,3.64,0,0,0,3.92-1.67,17.7,17.7,0,0,0,1.43-2.69,19.43,19.43,0,0,0,1.24-4.29c.16-.94,1.89-.79,2.52-2.07A4.55,4.55,0,0,1,105.55,108.07Z"></path><path class="cls-11" d="M108.41,111c.06,1.68-1,3.07-2.29,3.12s-2.45-1.27-2.51-2.94,1-3.07,2.29-3.12S108.35,109.35,108.41,111Z"></path><path class="cls-19" d="M120.71,144.06c3.31-8.88-14.82-18.47-14.82-18.47l-10.2-3.36-10,2.29c-6.57,2.38-7.18,10.43-7,14.54,0,.07,1.9,15.35,1.6,23-.11,2.7-.61,18.6-.31,19.77.87,3.44,34.42,12.74,36.88,2.93,0,0-2.45-21.42.47-30.12C118.81,150.18,119.84,146.39,120.71,144.06Z"></path><path class="cls-14" d="M116.25,98.66c-.08,1.64-1.81,3-4.15,3.07s-4.27-1.22-4.31-2.85-1.58-6.12.71-5.67C111.4,93.78,116.56,92.79,116.25,98.66Z"></path><rect class="cls-19" x="113.7" y="133.16" width="11.87" height="36.22" rx="5.36" transform="translate(-52.02 63.36) rotate(-24.54)"></rect><path class="cls-20" d="M96.23,120.14l10.26,3.18,4,5.12a13.54,13.54,0,0,0-4.2-1.11c-6.51-.92-11.67-2.22-13.77-4.39A3.51,3.51,0,0,1,96.23,120.14Z"></path><path class="cls-26" d="M99.61,122.61a4.51,4.51,0,0,1,1.39-1l-4.77-1.48a3.51,3.51,0,0,0-3.67,2.8c1.37,1.42,4.06,2.47,7.58,3.28h0A2.35,2.35,0,0,1,99.61,122.61Z"></path><path class="cls-11" d="M111,120.37a6.08,6.08,0,0,1-1.16-5.55c1-3,2.25-9.09.7-10.91s-2.9,3.2-2.9,3.2l-.29,5.11L104.71,114l.54,6.13Z"></path><path class="cls-14" d="M108.06,109.87h0a1.33,1.33,0,0,1-1.37-1.3l-.11-4.23a1.35,1.35,0,0,1,1.3-1.38h0c.74,0,2.68-1.55,2.7-.81l-1.22,6.35A1.34,1.34,0,0,1,108.06,109.87Z"></path><path class="cls-21" d="M112.58,146.75c2.81-7.55-8.76-14.79-12.28-16.78a10,10,0,0,0-1.89-.83h0a38.22,38.22,0,0,0-11.67-1.75H85.52c-6.58,2.38-7,7.55-6.85,11.66,0,.07,1.9,15.35,1.6,23-.11,2.7-.61,18.6-.31,19.77.87,3.44,34.07,14.88,36.88,2.93,0,0-6.3-19.77-3.38-28.48C115,151.82,111.71,149.08,112.58,146.75Z"></path><path class="cls-19" d="M112.93,146.1c-.76,2-1.67-.49-2.11,3.29-.06.55-.42,6.36-.44,7-.19,4.22,1.92,9.59,1.74,13.55a40.72,40.72,0,0,1-3,14c-.06,1.37.67,5.37-.65,6.21,5.61-.4,8.23-2.12,8.38-5.36,0,0-.8-23,.57-32.88Z"></path><path class="cls-21" d="M129.62,165.44a5.38,5.38,0,0,1-7.11-2.65l-9.78-20.43L111,146.7l8.5,18.63a5.38,5.38,0,0,0,7.11,2.65l1-.47a5.39,5.39,0,0,0,2.46-2.3Z"></path><line class="cls-22" x1="116.41" y1="107.59" x2="109.36" y2="108.5"></line><path class="cls-1" d="M327,282.93l-56.56-21.2c-3.34-1.25-3-4.14.7-6.43l18.31-11.25c3.72-2.28,9.5-3.13,12.84-1.88l56.55,21.2c3.34,1.25,3,4.14-.69,6.43l-18.32,11.25C336.13,283.33,330.35,284.18,327,282.93Z"></path><polygon class="cls-27" points="290.66 215.5 274.34 209.42 290.5 200.06 306.93 206.11 290.66 215.5"></polygon><polygon class="cls-15" points="274.34 209.42 274.4 226.37 274.5 254.84 290.82 260.93 290.66 215.5 274.34 209.42"></polygon><polygon class="cls-28" points="290.66 215.5 290.82 260.93 307.1 251.53 306.93 206.11 290.66 215.5"></polygon><polygon class="cls-29" points="311.45 241.02 295.24 234.9 311.36 225.57 327.62 231.66 311.45 241.02"></polygon><polygon class="cls-30" points="311.55 269.49 295.43 263.39 295.33 234.91 311.45 241.02 311.55 269.49"></polygon><polygon class="cls-13" points="311.55 269.49 327.62 260.12 327.52 231.64 311.45 241.02 311.55 269.49"></polygon><polygon class="cls-31" points="333.27 260.25 317.01 254.16 333.12 244.83 349.55 250.88 333.27 260.25"></polygon><polygon class="cls-32" points="333.06 278.38 349.61 268.49 349.55 250.88 332.99 260.31 333.06 278.38"></polygon><polygon class="cls-33" points="333.37 278.31 333.3 260.25 317.03 254.16 317.1 272.23 333.37 278.31"></polygon><path class="cls-34" d="M356.47,278.24l-18.32,11.24c-3.72,2.29-9.5,3.13-12.83,1.88l-56.56-21.19"></path><polyline class="cls-35" points="203.57 41.92 203.57 10.59 275.62 38.43"></polyline><line class="cls-34" x1="254.63" y1="309.22" x2="288.33" y2="286.73"></line><line class="cls-35" x1="313.71" y1="39.65" x2="347.41" y2="17.15"></line><line class="cls-34" x1="11.12" y1="265.46" x2="69.12" y2="231.02"></line><path class="cls-36" d="M248.28,124.39s3.95-5.43,11.24-2.78c5.57,2,2.64,2.25,9.33,3.28,3.94.61,10.06-6.94,19.78-4.07C306.24,126,312.38,109.59,320,117v39.85l-71.75-26.51Z"></path><path class="cls-37" d="M248.28,130.84a.24.24,0,0,1-.24-.24V90.8a.24.24,0,0,1,.24-.24.23.23,0,0,1,.23.24v39.8A.23.23,0,0,1,248.28,130.84Z"></path><path class="cls-37" d="M266.15,137a.23.23,0,0,1-.24-.23V96.94a.24.24,0,0,1,.24-.24.23.23,0,0,1,.23.24v39.81A.23.23,0,0,1,266.15,137Z"></path><path class="cls-37" d="M284,143.63a.23.23,0,0,1-.23-.24V103.58a.23.23,0,0,1,.23-.23.23.23,0,0,1,.24.23v39.81A.24.24,0,0,1,284,143.63Z"></path><path class="cls-37" d="M301.89,150.26a.23.23,0,0,1-.23-.23V110.22a.23.23,0,0,1,.23-.24.24.24,0,0,1,.24.24V150A.23.23,0,0,1,301.89,150.26Z"></path><path class="cls-37" d="M319.76,157.51a.23.23,0,0,1-.23-.23V117.47a.23.23,0,0,1,.23-.24.24.24,0,0,1,.24.24v39.81A.23.23,0,0,1,319.76,157.51Z"></path><path class="cls-38" d="M319.55,113.58l-2.35-1a1,1,0,0,1-.48-.82h0c0-.33.22-.52.48-.41l2.35,1a.92.92,0,0,1,.48.81h0C320,113.5,319.82,113.69,319.55,113.58Z"></path><path class="cls-38" d="M301.42,107.58l-2.36-1a.92.92,0,0,1-.47-.81h0c0-.34.21-.52.47-.41l2.36,1a1,1,0,0,1,.47.82h0C301.89,107.51,301.68,107.69,301.42,107.58Z"></path><path class="cls-38" d="M283.68,101.62l-2.36-1a.94.94,0,0,1-.47-.82h0c0-.34.21-.52.47-.41l2.36,1a.93.93,0,0,1,.47.81h0C284.15,101.55,283.94,101.74,283.68,101.62Z"></path><path class="cls-38" d="M265.68,95.49l-2.35-1a1,1,0,0,1-.48-.82h0c0-.34.22-.52.48-.41l2.35,1a.91.91,0,0,1,.48.81h0C266.16,95.42,266,95.6,265.68,95.49Z"></path><path class="cls-38" d="M248,89.21l-2.36-1a.94.94,0,0,1-.47-.82h0c0-.33.21-.52.47-.41L248,88a.94.94,0,0,1,.47.82h0C248.43,89.13,248.22,89.32,248,89.21Z"></path><path class="cls-1" d="M388.93,72.37a1.23,1.23,0,1,1-1.22-1.23A1.22,1.22,0,0,1,388.93,72.37Z"></path><path class="cls-1" d="M397,277a1.23,1.23,0,1,1-1.23-1.23A1.23,1.23,0,0,1,397,277Z"></path><path class="cls-1" d="M132.53,84.39a1.23,1.23,0,1,1-1.23-1.23A1.23,1.23,0,0,1,132.53,84.39Z"></path><path class="cls-1" d="M354.78,10.59a2.33,2.33,0,1,1-2.33-2.34A2.33,2.33,0,0,1,354.78,10.59Z"></path></g></svg> 